<?xml version="1.0" encoding="UTF-8"?>
<!-- Generator: Adobe Illustrator 28.1.0, SVG Export Plug-In . SVG Version: 6.00 Build 0)  -->
<svg xmlns="http://www.w3.org/2000/svg" xmlns:xlink="http://www.w3.org/1999/xlink" version="1.1" id="Layer_1" x="0px" y="0px" viewBox="0 0 481.6 524" style="enable-background:new 0 0 481.6 524;" xml:space="preserve">
<style type="text/css">
	.st0{fill:#FFFFFF;}
	.st1{fill:none;stroke:#000000;stroke-width:2;stroke-miterlimit:10;}
	.st2{font-family:'Calibri';}
	.st3{font-size:40px;}
	.st4{font-size:48px;}
</style>
<g>
	<rect x="65.5" y="1.5" class="st0" width="106" height="106"></rect>
	<path d="M170,3v103H67V3H170 M173,0H64v109h109V0L173,0z"></path>
</g>
<g>
	<rect x="190.5" y="1.5" class="st0" width="106" height="106"></rect>
	<path d="M295,3v103H192V3H295 M298,0H189v109h109V0L298,0z"></path>
</g>
<g>
	<rect x="315.5" y="1.5" class="st0" width="106" height="106"></rect>
	<path d="M420,3v103H317V3H420 M423,0H314v109h109V0L423,0z"></path>
</g>
<g>
	<rect x="65.5" y="124.5" class="st0" width="106" height="106"></rect>
	<path d="M170,126v103H67V126H170 M173,123H64v109h109V123L173,123z"></path>
</g>
<g>
	<rect x="190.5" y="124.5" class="st0" width="106" height="106"></rect>
	<path d="M295,126v103H192V126H295 M298,123H189v109h109V123L298,123z"></path>
</g>
<g>
	<rect x="315.5" y="124.5" class="st0" width="106" height="106"></rect>
	<path d="M420,126v103H317V126H420 M423,123H314v109h109V123L423,123z"></path>
</g>
<g>
	<rect x="65.5" y="247.5" class="st0" width="106" height="106"></rect>
	<path d="M170,249v103H67V249H170 M173,246H64v109h109V246L173,246z"></path>
</g>
<g>
	<rect x="190.5" y="247.5" class="st0" width="106" height="106"></rect>
	<path d="M295,249v103H192V249H295 M298,246H189v109h109V246L298,246z"></path>
</g>
<g>
	<rect x="315.5" y="247.5" class="st0" width="106" height="106"></rect>
	<path d="M420,249v103H317V249H420 M423,246H314v109h109V246L423,246z"></path>
</g>
<g>
	<g>
		<path class="st1" d="M120.2,85.3c-17.1,3-30.2-9.1-30.2-27s13.1-36,30.2-40.8c18-5.1,33.4,6.5,33.4,26.2S138.2,82.1,120.2,85.3z"></path>
		<path class="st1" d="M144.9,45.7c0-14.6-11.3-23.4-24.7-19.8c-12.9,3.5-22.9,17.1-22.9,30.7s10,22.6,22.9,20.2    C133.6,74.3,144.9,60.3,144.9,45.7z"></path>
		<path class="st1" d="M120.2,68.3c-8.6,1.8-15.5-4.3-15.5-13.4s6.8-18.3,15.5-20.5c8.9-2.3,16.3,3.6,16.3,13.2    S129.1,66.5,120.2,68.3z"></path>
		<path class="st1" d="M128.2,49.5c0-4.7-3.6-7.7-8-6.6c-4.4,1.1-7.8,5.6-7.8,10.3s3.5,7.6,7.8,6.7    C124.6,58.9,128.2,54.3,128.2,49.5z"></path>
	</g>
	<g>
		<line class="st1" x1="120.2" y1="51.4" x2="120.2" y2="85.3"></line>
		<line class="st1" x1="120.2" y1="51.4" x2="148.9" y2="27.1"></line>
		<line class="st1" x1="120.2" y1="51.4" x2="93.9" y2="41.2"></line>
	</g>
</g>
<g>
	<g>
		<path class="st1" d="M241.5,18.4c18-7.5,33.5,3.2,33.5,24.5s-15.5,42.7-33.5,47.6C224.8,95,212,83.3,212,64.6    S224.8,25.4,241.5,18.4z"></path>
		<path class="st1" d="M219.1,62.2c0,14.3,9.8,23,22.5,19.3c13.4-3.9,24.7-19.9,24.7-35.5s-11.3-23.8-24.7-18.5    C228.9,32.4,219.1,47.9,219.1,62.2z"></path>
		<path class="st1" d="M241.5,36.4c8.8-3.4,16.2,2.1,16.2,12.4s-7.4,20.9-16.2,23.6c-8.5,2.6-15.2-3.1-15.2-12.8    S233,39.6,241.5,36.4z"></path>
		<path class="st1" d="M233.8,57.1c0,4.9,3.4,7.7,7.7,6.3c4.4-1.4,8-6.7,8-11.8s-3.6-7.8-8-6.3C237.2,47,233.8,52.2,233.8,57.1z"></path>
	</g>
	<g>
		<line class="st1" x1="241.5" y1="54.4" x2="241.5" y2="18.4"></line>
		<line class="st1" x1="241.5" y1="54.4" x2="212" y2="64.6"></line>
		<line class="st1" x1="241.5" y1="54.4" x2="241.5" y2="90.4"></line>
		<line class="st1" x1="241.5" y1="54.4" x2="275" y2="42.9"></line>
	</g>
</g>
<g>
	<g>
		<path class="st1" d="M363.4,20.8C384.2,6.1,404,9.9,404,31.8s-19.8,47.9-40.6,56.6c-17.7,7.4-30.2-0.5-30.2-16.8    S345.7,33.3,363.4,20.8z"></path>
		<path class="st1" d="M340,67.7c0,12.6,9.9,18.3,23.4,12.2c15.3-7,29.2-26,29.2-41.8s-13.9-19.2-29.2-8.9    C349.9,38.3,340,55.1,340,67.7z"></path>
		<path class="st1" d="M363.4,37.7c10-6.3,18.7-3.7,18.7,6.4s-8.7,22.5-18.7,27.4c-9.2,4.5-16.1,0.9-16.1-7.8S354.2,43.5,363.4,37.7    z"></path>
		<path class="st1" d="M355.1,59.3c0,4.5,3.7,6.2,8.4,3.7c4.9-2.6,9-8.7,9-13.5s-4.1-6.3-9-3.4C358.7,48.9,355.1,54.8,355.1,59.3z"></path>
	</g>
	<g>
		<line class="st1" x1="363.4" y1="54.6" x2="363.4" y2="20.8"></line>
		<line class="st1" x1="363.4" y1="54.6" x2="334.5" y2="61.7"></line>
		<line class="st1" x1="363.4" y1="54.6" x2="344.7" y2="90.3"></line>
		<line class="st1" x1="363.4" y1="54.6" x2="385.7" y2="72"></line>
		<line class="st1" x1="363.4" y1="54.6" x2="401.7" y2="20.9"></line>
	</g>
</g>
<g>
	<g>
		<path class="st1" d="M78.9,186.3c0,19.9,15.4,34,36.1,31.4c22.8-2.9,43-24.7,43-48.5s-20.2-36.8-43-29.9    C94.3,145.6,78.9,166.4,78.9,186.3z"></path>
		<path class="st1" d="M115,147.2c18.1-5.2,33.8,5.4,33.8,24s-15.7,36-33.8,38.6c-16.7,2.4-29.4-8.8-29.4-25S98.2,151.9,115,147.2z"></path>
		<path class="st1" d="M92.6,183.3c0,12.3,9.7,20.7,22.4,18.7c13.4-2.2,24.9-15.2,24.9-28.9S128.4,151.4,115,155    C102.3,158.4,92.6,171,92.6,183.3z"></path>
		<path class="st1" d="M115,162.8c8.9-2.2,16.3,3.2,16.3,12.2s-7.4,17.6-16.3,19.2c-8.5,1.5-15.2-4-15.2-12.4S106.5,165,115,162.8z"></path>
		<path class="st1" d="M107.2,180.2c0,4.3,3.4,7,7.7,6.2c4.4-0.9,8-5.2,8-9.6c0-4.4-3.6-7.1-8-6.1    C110.7,171.7,107.2,175.9,107.2,180.2z"></path>
	</g>
	<g>
		<line class="st1" x1="115" y1="178.5" x2="115" y2="139.3"></line>
		<line class="st1" x1="115" y1="178.5" x2="83.4" y2="203.5"></line>
		<line class="st1" x1="115" y1="178.5" x2="151.8" y2="191.7"></line>
	</g>
</g>
<g>
	<g>
		<path class="st1" d="M207,186.4c0,17.9,13.7,30.7,32.7,28.4c21.6-2.7,41.4-23.5,41.4-46.2s-19.8-34-41.4-26.2    C220.7,149.1,207,168.5,207,186.4z"></path>
		<path class="st1" d="M239.6,149.5c17-5.7,32.3,3.5,32.3,21.2s-15.2,34.2-32.3,36.7c-15.3,2.3-26.7-7.9-26.7-22.5    C212.9,170.3,224.3,154.7,239.6,149.5z"></path>
		<path class="st1" d="M219.1,183.4c0,11.2,8.8,18.8,20.5,16.8c12.6-2.1,23.6-14.5,23.6-27.4s-11-20-23.6-16.1    C228,160.4,219.1,172.2,219.1,183.4z"></path>
		<path class="st1" d="M239.6,164c8.3-2.4,15.3,2.4,15.3,10.8s-7,16.6-15.3,18.2c-7.9,1.5-13.9-3.5-13.9-11.1S231.7,166.3,239.6,164    z"></path>
		<path class="st1" d="M232.5,180.2c0,3.9,3.1,6.4,7.1,5.5c4.1-0.9,7.5-4.9,7.5-9c0-4.1-3.4-6.5-7.5-5.4    C235.6,172.3,232.5,176.3,232.5,180.2z"></path>
	</g>
	<g>
		<line class="st1" x1="239.6" y1="178.5" x2="239.6" y2="142.3"></line>
		<line class="st1" x1="239.6" y1="178.5" x2="207" y2="186.4"></line>
		<line class="st1" x1="239.6" y1="178.5" x2="239.6" y2="214.7"></line>
		<line class="st1" x1="239.6" y1="178.5" x2="281" y2="168.5"></line>
	</g>
</g>
<g>
	<g>
		<path class="st1" d="M330.3,188c0,16.8,13.5,28.9,32.7,26.7c22.6-2.5,44-23.2,44-45.8s-21.4-32.6-44-23.9    C343.8,152.4,330.3,171.2,330.3,188z"></path>
		<path class="st1" d="M363,152c17.7-6.3,34,2,34,19.4s-16.3,33.9-34,36.4c-15.6,2.2-26.9-7.4-26.9-21.2S347.4,157.6,363,152z"></path>
		<path class="st1" d="M342.3,185c0,10.6,8.8,17.8,20.7,15.8c13.1-2.2,24.7-14.4,24.7-27.1S376.1,154.6,363,159    C351.2,162.9,342.3,174.4,342.3,185z"></path>
		<path class="st1" d="M363,165.9c8.6-2.6,15.9,1.8,15.9,10s-7.4,16.2-15.9,17.9c-8,1.6-14.2-3.1-14.2-10.4S355,168.4,363,165.9z"></path>
		<path class="st1" d="M355.7,181.7c0,3.7,3.2,6.1,7.3,5.2c4.2-0.9,7.7-4.9,7.7-8.9s-3.5-6.2-7.7-5.1    C358.9,174,355.7,177.9,355.7,181.7z"></path>
	</g>
	<g>
		<line class="st1" x1="363" y1="179.9" x2="363" y2="145"></line>
		<line class="st1" x1="363" y1="179.9" x2="331.7" y2="178.2"></line>
		<line class="st1" x1="363" y1="179.9" x2="342.7" y2="210.9"></line>
		<line class="st1" x1="363" y1="179.9" x2="387.2" y2="204.8"></line>
		<line class="st1" x1="363" y1="179.9" x2="404.5" y2="157"></line>
	</g>
</g>
<g>
	<g>
		<path class="st1" d="M116,263.6c23.3,0.5,44,18.8,44,40.8s-20.7,36.1-44,31.9c-21.2-3.8-37-21.6-37-40.1S94.8,263.1,116,263.6z"></path>
		<path class="st1" d="M84.7,296.8c0,15.6,13.4,30.5,31.2,33.4c19.3,3.2,36.1-8.6,36.1-26.6s-16.8-33.2-36.1-33.9    C98.2,269,84.7,281.2,84.7,296.8z"></path>
		<path class="st1" d="M116,275.7c15.3,0.8,28.4,12.9,28.4,27.1c0,14.2-13.1,23.7-28.4,21.3c-14.4-2.2-25.3-14.1-25.3-26.8    C90.7,284.7,101.6,275,116,275.7z"></path>
		<path class="st1" d="M96.7,298c0,9.6,8.4,18.6,19.3,20.1c11.4,1.6,21-5.5,21-16s-9.6-19.6-21-20.3    C105.1,281.1,96.7,288.4,96.7,298z"></path>
		<path class="st1" d="M116,287.8c7.5,0.6,13.8,6.6,13.8,13.5S123.5,313,116,312c-7.3-0.9-13-6.9-13-13.4S108.7,287.3,116,287.8z"></path>
		<path class="st1" d="M109.4,299.3c0,3.3,2.9,6.3,6.6,6.7c3.7,0.4,6.8-2,6.8-5.4c0-3.4-3.1-6.4-6.8-6.7    C112.3,293.6,109.4,296,109.4,299.3z"></path>
	</g>
	<g>
		<line class="st1" x1="116" y1="299.9" x2="116" y2="263.6"></line>
		<line class="st1" x1="116" y1="299.9" x2="83.6" y2="313.5"></line>
		<line class="st1" x1="116" y1="299.9" x2="153.6" y2="323.4"></line>
	</g>
</g>
<g>
	<g>
		<path class="st1" d="M237.6,263.9c24.2-0.9,46.4,17.6,46.4,41.5s-22.2,39.3-46.4,34.9c-21.2-3.9-36.6-21.9-36.6-40.8    S216.4,264.7,237.6,263.9z"></path>
		<path class="st1" d="M206.6,299.8c0,16,13.2,31.1,31,34c19.9,3.3,37.8-9.6,37.8-29.1s-17.9-34.9-37.8-34.5    C219.7,270.6,206.6,283.8,206.6,299.8z"></path>
		<path class="st1" d="M237.6,276.6c15.8,0,29.6,12.3,29.6,27.6s-13.8,25.6-29.6,23.3c-14.4-2.1-25.3-14.2-25.3-27.3    C212.3,287.2,223.1,276.6,237.6,276.6z"></path>
		<path class="st1" d="M218.3,300.7c0,10,8.4,19.1,19.3,20.5c11.7,1.5,21.7-6.3,21.7-17.5s-10.1-20.5-21.7-20.7    C226.6,282.8,218.3,290.7,218.3,300.7z"></path>
		<path class="st1" d="M237.6,289.3c7.7,0.3,14.2,6.4,14.2,13.7s-6.5,12.6-14.2,11.7c-7.4-0.8-13.1-6.9-13.1-13.7    C224.5,294.3,230.2,289.1,237.6,289.3z"></path>
		<path class="st1" d="M230.9,301.6c0,3.5,3,6.5,6.7,6.8c3.8,0.3,7-2.3,7-5.9c0-3.6-3.1-6.7-7-6.9    C233.9,295.5,230.9,298.1,230.9,301.6z"></path>
	</g>
	<g>
		<line class="st1" x1="237.6" y1="302.1" x2="237.6" y2="263.9"></line>
		<line class="st1" x1="237.6" y1="302.1" x2="201" y2="299.4"></line>
		<line class="st1" x1="237.6" y1="302.1" x2="237.6" y2="340.2"></line>
		<line class="st1" x1="237.6" y1="302.1" x2="284" y2="305.4"></line>
	</g>
</g>
<g>
	<rect x="374.1" y="415.1" class="st0" width="106" height="106"></rect>
	<path d="M478.6,416.6v103h-103v-103H478.6 M481.6,413.6h-109v109h109V413.6L481.6,413.6z"></path>
</g>
<g>
	<g>
		<path class="st1" d="M421.4,430.8c24.2-2.3,47.2,15.2,47.2,39.5s-23,39.9-47.2,35.6c-20.6-3.7-35.1-20.9-35.1-39    S400.9,432.8,421.4,430.8z"></path>
		<path class="st1" d="M391.6,467.1c0,15.4,12.5,29.8,29.9,32.5c19.9,3.1,38.2-10,38.2-29.7s-18.3-34.3-38.2-32.9    C404.1,438.4,391.6,451.7,391.6,467.1z"></path>
		<path class="st1" d="M421.4,443.4c15.7-0.8,29.7,10.9,29.7,26.2s-14.1,25.9-29.7,23.8c-14.1-1.9-24.4-13.4-24.4-26    C397,454.8,407.4,444.1,421.4,443.4z"></path>
		<path class="st1" d="M402.7,467.6c0,9.7,8.1,18.4,18.7,19.5c11.6,1.3,21.7-6.7,21.7-17.9c0-11.2-10.1-20-21.7-19.7    C410.7,449.9,402.7,457.9,402.7,467.6z"></path>
		<path class="st1" d="M421.4,455.9c7.6,0,14.1,5.8,14.1,13.1s-6.5,12.6-14.1,11.9c-7.2-0.6-12.8-6.4-12.8-13    S414.2,455.9,421.4,455.9z"></path>
		<path class="st1" d="M414.9,468.1c0,3.4,2.9,6.3,6.5,6.5c3.8,0.2,6.9-2.4,6.9-6c0-3.5-3.1-6.5-6.9-6.5    C417.8,462,414.9,464.7,414.9,468.1z"></path>
	</g>
	<g>
		<line class="st1" x1="421.4" y1="468.4" x2="421.4" y2="430.8"></line>
		<line class="st1" x1="421.4" y1="468.4" x2="387.9" y2="456.8"></line>
		<line class="st1" x1="421.4" y1="468.4" x2="399.7" y2="495.4"></line>
		<line class="st1" x1="421.4" y1="468.4" x2="447.3" y2="502.7"></line>
		<line class="st1" x1="421.4" y1="468.4" x2="465.9" y2="456.7"></line>
	</g>
</g>
<g>
	<rect x="249.5" y="415.5" class="st0" width="106" height="106"></rect>
	<path d="M354,417v103H251V417H354 M357,414H248v109h109V414L357,414z"></path>
</g>
<g>
	<rect x="125.5" y="415.5" class="st0" width="106" height="106"></rect>
	<path d="M230,417v103H127V417H230 M233,414H124v109h109V414L233,414z"></path>
</g>
<g>
	<rect x="1.5" y="416.5" class="st0" width="106" height="106"></rect>
	<path d="M106,418v103H3V418H106 M109,415H0v109h109V415L109,415z"></path>
</g>
<text transform="matrix(1 0 0 1 40.6831 410.8125)" class="st2 st3">A</text>
<text transform="matrix(1 0 0 1 166.0157 410.3619)" class="st2 st3">B</text>
<text transform="matrix(1 0 0 1 290.7092 409.3615)" class="st2 st3">C</text>
<text transform="matrix(1 0 0 1 410.9241 409.362)" class="st2 st3">D</text>
<g>
	<g>
		<path class="st1" d="M52.4,433.1c25.5,10.1,47.6,34.7,47.6,54.2c0,19.6-22.1,24.3-47.6,11.6C28.8,487.2,11,464.5,11,447.5    C11,430.5,28.8,423.7,52.4,433.1z"></path>
		<path class="st1" d="M17.5,450.4c0,14.3,15.1,33.4,34.9,43.1c21.1,10.3,39.2,6.2,39.2-9.9c0-16.1-18.1-36.4-39.2-45    C32.6,430.6,17.5,436.1,17.5,450.4z"></path>
		<path class="st1" d="M52.4,444.1c16.7,6.9,31,23.1,31,35.8s-14.2,16.2-31,8.1c-15.9-7.7-28.2-23-28.2-34.6    C24.2,441.8,36.5,437.5,52.4,444.1z"></path>
		<path class="st1" d="M31,456.4c0,8.8,9.4,20.4,21.4,26c12.5,5.9,22.9,3.2,22.9-6.2s-10.5-21.5-22.9-26.7    C40.4,444.5,31,447.6,31,456.4z"></path>
		<path class="st1" d="M52.4,455c8.3,3.6,15.1,11.5,15.1,17.7c0,6.2-6.8,8.1-15.1,4.2c-8.1-3.7-14.4-11.5-14.4-17.4    C38,453.6,44.4,451.6,52.4,455z"></path>
		<path class="st1" d="M45.1,462.7c0,3,3.2,6.9,7.3,8.8c4.1,1.9,7.5,0.9,7.5-2.1c0-3.1-3.4-7-7.5-8.8    C48.4,458.7,45.1,459.7,45.1,462.7z"></path>
	</g>
	<g>
		<line class="st1" x1="52.4" y1="466" x2="52.4" y2="433.1"></line>
		<line class="st1" x1="52.4" y1="466" x2="11" y2="447.5"></line>
		<line class="st1" x1="52.4" y1="466" x2="52.4" y2="498.9"></line>
		<line class="st1" x1="52.4" y1="466" x2="100" y2="487.3"></line>
	</g>
</g>
<g>
	<g>
		<path class="st1" d="M134,489.1c0,17.8,20.2,24,45.1,13.9c24.8-10.1,44.9-32.5,44.9-50.2s-20-24-44.9-14    C154.2,448.7,134,471.3,134,489.1z"></path>
		<path class="st1" d="M179.1,443.3c21.3-8.6,38.5-3.2,38.5,12s-17.2,34.4-38.5,43.1c-21.3,8.6-38.7,3.3-38.7-11.9    C140.5,471.2,157.8,451.9,179.1,443.3z"></path>
		<path class="st1" d="M146.9,483.9c0,12.7,14.4,17.2,32.2,10c17.7-7.2,32.1-23.2,32.1-35.9s-14.3-17.1-32.1-10    C161.3,455.1,146.9,471.1,146.9,483.9z"></path>
		<path class="st1" d="M179.1,452.5c14.2-5.7,25.7-2.1,25.7,8c0,10.1-11.5,23-25.7,28.7c-14.2,5.8-25.8,2.2-25.8-8    S164.9,458.2,179.1,452.5z"></path>
		<path class="st1" d="M159.8,478.7c0,7.6,8.6,10.3,19.3,6c10.7-4.3,19.3-13.9,19.3-21.5s-8.6-10.3-19.3-6    C168.5,461.4,159.8,471,159.8,478.7z"></path>
		<path class="st1" d="M179.1,461.7c7.1-2.9,12.8-1.1,12.8,4c0,5.1-5.7,11.5-12.8,14.4c-7.1,2.9-12.9,1.1-12.9-4    S172,464.5,179.1,461.7z"></path>
		<path class="st1" d="M172.7,473.5c0,2.5,2.9,3.4,6.4,2c3.6-1.4,6.4-4.6,6.4-7.2c0-2.5-2.9-3.4-6.4-2    C175.6,467.7,172.7,470.9,172.7,473.5z"></path>
	</g>
	<g>
		<line class="st1" x1="179.1" y1="470.9" x2="179.1" y2="438.7"></line>
		<line class="st1" x1="179.1" y1="470.9" x2="136.2" y2="478.2"></line>
		<line class="st1" x1="179.1" y1="470.9" x2="152.6" y2="507.6"></line>
		<line class="st1" x1="179.1" y1="470.9" x2="205.5" y2="486.2"></line>
		<line class="st1" x1="179.1" y1="470.9" x2="221.8" y2="443.7"></line>
	</g>
</g>
<g>
	<g>
		<path class="st1" d="M345.2,488c0-20.5-22.1-44.5-47.1-53c-22.9-7.8-40.1,0.5-40.1,17.9c0,17.4,17.1,39.5,40.1,50.2    C323.1,514.7,345.2,508.4,345.2,488z"></path>
		<path class="st1" d="M298.1,496.2c-18.5-8.4-32.5-26.2-32.5-40.3c0-14.1,14-20.6,32.5-14.1c19.9,7,37,26.1,37,42.2    S317.9,505.2,298.1,496.2z"></path>
		<path class="st1" d="M325.4,480c0-11.9-12.5-26-27.3-31.4c-14-5.1-24.8-0.3-24.8,10.4c0,10.8,10.8,24.2,24.8,30.4    C312.8,495.9,325.4,491.8,325.4,480z"></path>
		<path class="st1" d="M298.1,482.6c-9.4-4-16.8-13.1-16.8-20.4s7.4-10.4,16.8-6.8c9.7,3.7,17.9,13.1,17.9,20.8    S307.8,486.8,298.1,482.6z"></path>
		<path class="st1" d="M306.9,472.5c0-3.8-4-8.5-8.8-10.4c-4.7-1.9-8.5-0.3-8.5,3.4s3.8,8.3,8.5,10.2    C302.9,477.8,306.9,476.3,306.9,472.5z"></path>
	</g>
	<g>
		<line class="st1" x1="298.1" y1="469" x2="298.1" y2="503"></line>
		<line class="st1" x1="298.1" y1="469" x2="342.7" y2="498.4"></line>
		<line class="st1" x1="298.1" y1="469" x2="324.8" y2="450.9"></line>
		<line class="st1" x1="298.1" y1="469" x2="273.8" y2="432.9"></line>
		<line class="st1" x1="298.1" y1="469" x2="259.8" y2="463.3"></line>
	</g>
</g>
<text transform="matrix(1 0 0 1 355.8799 316.1885)" class="st2 st4">?</text>
</svg>
