<svg width="42" height="42" viewBox="0 0 42 42" fill="none" xmlns="http://www.w3.org/2000/svg">
<circle cx="21" cy="21" r="21" fill="#FBF1DD"/>
<mask id="mask0_57_216" style="mask-type:luminance" maskUnits="userSpaceOnUse" x="8" y="7" width="26" height="29">
<path d="M8 7H33.4909V36H8V7Z" fill="white"/>
</mask>
<g mask="url(#mask0_57_216)">
<path d="M30.9839 7H15.0017C13.6234 7 12.5047 8.11971 12.5047 9.49977V21H8.50899C8.2345 21 8.00966 21.2248 8.00966 21.5V33.2499C8.00966 34.7648 9.24317 36 10.7567 36H30.9839C32.3625 36 33.4812 34.8799 33.4812 33.4999V9.49977C33.4812 8.11971 32.3625 7 30.9839 7ZM9.00867 33.2499V22H12.5047V33.2499C12.5047 34.2147 11.7205 35 10.7567 35C9.79285 35 9.00867 34.2147 9.00867 33.2499ZM32.4822 33.4999C32.4822 34.3247 31.808 35 30.9839 35H13.5034V9.49977C13.5034 8.67491 14.1779 7.9997 15.0017 7.9997H30.9839C31.808 7.9997 32.4822 8.67491 32.4822 9.49977V33.4999Z" fill="#D19100"/>
</g>
<path d="M18.1632 16.6698C19.3971 16.6698 20.5758 16.1397 21.3948 15.2149C21.4348 15.1697 21.4648 15.1197 21.4844 15.0697C21.5244 14.9749 21.5296 14.8649 21.5044 14.7648C21.2548 13.73 20.5506 12.9099 19.6368 12.4747C19.9613 12.1199 20.1661 11.6499 20.1661 11.1298C20.1661 10.025 19.2671 9.12492 18.1632 9.12492C17.0594 9.12492 16.1604 10.025 16.1604 11.1298C16.1604 11.6499 16.3652 12.1199 16.6901 12.4747C15.7859 12.9048 15.0869 13.71 14.8321 14.73C14.7972 14.84 14.8021 14.96 14.8469 15.0697C14.8721 15.1297 14.9069 15.1849 14.9569 15.2349C15.7659 16.1497 16.9346 16.6698 18.1632 16.6698ZM17.1594 11.1298C17.1594 10.575 17.6091 10.125 18.1632 10.125C18.7178 10.125 19.1671 10.575 19.1671 11.1298C19.1671 11.6847 18.7178 12.1347 18.1684 12.1347H18.1632H18.1584C17.6091 12.1347 17.1594 11.6847 17.1594 11.1298ZM18.1584 13.1348C18.1632 13.1348 18.1632 13.1348 18.1684 13.1348C19.2071 13.1348 20.1161 13.7848 20.4606 14.7448C19.8464 15.3349 19.0223 15.6649 18.1632 15.6649C17.3042 15.6649 16.4801 15.3297 15.8707 14.7448C16.2156 13.79 17.1194 13.1399 18.1584 13.1348Z" fill="#D19100"/>
<path d="M23.5125 11.6299H26.0795C26.3543 11.6299 26.5788 11.405 26.5788 11.1299C26.5788 10.855 26.3543 10.6298 26.0795 10.6298H23.5125C23.2376 10.6298 23.0128 10.855 23.0128 11.1299C23.0128 11.405 23.2328 11.6299 23.5125 11.6299Z" fill="#D19100"/>
<path d="M23.5125 14.48H30.4697C30.7442 14.48 30.969 14.2548 30.969 13.98C30.969 13.7048 30.7442 13.48 30.4697 13.48H23.5125C23.2376 13.48 23.0128 13.7048 23.0128 13.98C23.0128 14.2548 23.2328 14.48 23.5125 14.48Z" fill="#D19100"/>
<path d="M30.5745 18.355H15.4114C15.1365 18.355 14.912 18.5799 14.912 18.8547C14.912 19.1299 15.1365 19.3547 15.4114 19.3547H30.5693C30.8442 19.3547 31.069 19.1299 31.069 18.8547C31.069 18.5799 30.849 18.355 30.5745 18.355Z" fill="#D19100"/>
<path d="M30.5745 21.57H15.4114C15.1365 21.57 14.912 21.7948 14.912 22.07C14.912 22.3449 15.1365 22.5697 15.4114 22.5697H30.5693C30.8442 22.5697 31.069 22.3449 31.069 22.07C31.069 21.7948 30.849 21.57 30.5745 21.57Z" fill="#D19100"/>
<path d="M30.5745 24.785H15.4114C15.1365 24.785 14.912 25.0098 14.912 25.285C14.912 25.5599 15.1365 25.785 15.4114 25.785H30.5693C30.8442 25.785 31.069 25.5599 31.069 25.285C31.069 25.0098 30.849 24.785 30.5745 24.785Z" fill="#D19100"/>
<path d="M30.5745 28H15.4114C15.1365 28 14.912 28.2248 14.912 28.5C14.912 28.7748 15.1365 29 15.4114 29H30.5693C30.8442 29 31.069 28.7748 31.069 28.5C31.069 28.2248 30.849 28 30.5745 28Z" fill="#D19100"/>
<path d="M30.5745 31.2149H15.4114C15.1365 31.2149 14.912 31.4398 14.912 31.715C14.912 31.9898 15.1365 32.215 15.4114 32.215H30.5693C30.8442 32.215 31.069 31.9898 31.069 31.715C31.069 31.4398 30.849 31.2149 30.5745 31.2149Z" fill="#D19100"/>
</svg>
