<svg width="40" height="40" viewBox="0 0 40 40" fill="none" xmlns="http://www.w3.org/2000/svg">
<rect width="39.2368" height="39.2368" rx="19.6184" fill="url(#paint0_linear_57_222)"/>
<mask id="mask0_57_222" style="mask-type:luminance" maskUnits="userSpaceOnUse" x="8" y="7" width="23" height="26">
<path d="M8 7H31V32.9426H8V7Z" fill="white"/>
</mask>
<g mask="url(#mask0_57_222)">
<path fill-rule="evenodd" clip-rule="evenodd" d="M14.8797 24.8005L17.1592 28.5015C17.2318 28.6197 17.3569 28.6957 17.4954 28.7061C17.6337 28.7164 17.7685 28.6598 17.8579 28.5537L17.9183 28.4821L17.3982 31.0034C17.3703 31.1385 17.4085 31.2786 17.5011 31.3809L18.9142 32.9426H9.51818C9.4403 32.9426 9.36617 32.9091 9.31488 32.8506C9.26358 32.7921 9.24013 32.7142 9.25013 32.6373C9.72273 29.1962 11.8884 26.2949 14.8797 24.8005ZM20.0805 32.9426L21.4936 31.3809C21.5862 31.2786 21.6243 31.1385 21.5965 31.0034L21.0764 28.4821L21.1364 28.5537C21.2281 28.662 21.3669 28.7186 21.508 28.7054C21.6494 28.692 21.7751 28.61 21.8445 28.4865L23.957 24.7232C27.03 26.1936 29.2635 29.1361 29.7442 32.6373C29.7542 32.7142 29.7308 32.7918 29.6795 32.8503C29.6282 32.9088 29.5544 32.9422 29.4765 32.9422C27.8304 32.9426 20.0805 32.9426 20.0805 32.9426ZM23.1569 24.3814L21.3954 27.5191L20.6422 26.6264C20.6404 26.6243 20.6388 26.6221 20.6369 26.6199L20.0996 25.9831L22.2383 24.0824C22.5508 24.1681 22.857 24.2678 23.1569 24.3814ZM21.1936 23.8537L19.4784 25.3782L17.5633 23.8959C18.1898 23.7774 18.8363 23.7155 19.4972 23.7155C20.0752 23.7155 20.6416 23.7627 21.1936 23.8537ZM16.4908 24.159L18.876 26.0059L18.3577 26.6199C18.3562 26.6221 18.3543 26.6243 18.3524 26.6264L17.5824 27.5391L15.676 24.4439C15.9422 24.3379 16.214 24.2428 16.4908 24.159ZM19.0874 27.0962L19.4972 26.6108L19.9072 27.0962L20.7051 30.9633L19.4972 32.2982L18.2896 30.9633L19.0874 27.0962ZM19.4975 12.719C22.3856 12.719 24.727 15.0598 24.727 17.947C24.727 20.8342 22.3856 23.175 19.4975 23.175C16.609 23.175 14.2676 20.8342 14.2676 17.947C14.2676 15.0598 16.609 12.719 19.4975 12.719ZM19.3117 7.1348C19.338 7.05442 19.4127 7 19.4972 7C19.5816 7 19.6567 7.05442 19.6826 7.1348L20.0745 8.3396C20.1005 8.41998 20.1753 8.47441 20.2597 8.47441H21.5274C21.6118 8.47441 21.6866 8.52883 21.7125 8.60921C21.7388 8.68928 21.71 8.77748 21.6418 8.8269L20.6166 9.57161C20.5481 9.62134 20.5196 9.70923 20.5456 9.78961L20.9372 10.9947C20.9634 11.0748 20.9347 11.163 20.8665 11.2124C20.798 11.2621 20.7057 11.2621 20.6372 11.2124L19.612 10.4677C19.5435 10.4183 19.4509 10.4183 19.3827 10.4677L18.3574 11.2124C18.2889 11.2621 18.1964 11.2621 18.1282 11.2124C18.0597 11.163 18.0312 11.0748 18.0572 10.9947L18.4491 9.78961C18.475 9.70923 18.4466 9.62134 18.3781 9.57161L17.3528 8.8269C17.2843 8.77748 17.2558 8.68928 17.2818 8.60921C17.3081 8.52883 17.3828 8.47441 17.4673 8.47441H18.7346C18.8191 8.47441 18.8941 8.41998 18.9201 8.3396L19.3117 7.1348ZM11.3357 10.5909C11.2972 10.5159 11.3119 10.4245 11.3714 10.3648C11.4311 10.3051 11.5227 10.2904 11.5978 10.3288L12.7272 10.904C12.8026 10.9425 12.8939 10.9278 12.9537 10.8684L13.8498 9.97227C13.9095 9.91253 14.0008 9.89814 14.0762 9.93662C14.1513 9.97477 14.1935 10.0573 14.18 10.1405L13.9821 11.3919C13.9686 11.4755 14.0108 11.5577 14.0859 11.5962L15.2153 12.1714C15.2907 12.2095 15.3326 12.2921 15.3195 12.3756C15.306 12.4588 15.2407 12.5242 15.1571 12.5376L13.9054 12.7356C13.8219 12.7487 13.7566 12.8144 13.7434 12.8976L13.5451 14.149C13.532 14.2325 13.4663 14.2979 13.3831 14.311C13.2996 14.3242 13.217 14.2823 13.1789 14.2072L12.6034 13.0781C12.5649 13.003 12.4826 12.9611 12.3991 12.9743L11.1474 13.1726C11.0639 13.1857 10.9813 13.1435 10.9432 13.0684C10.9047 12.993 10.9194 12.9017 10.9791 12.842L11.8752 11.9462C11.935 11.8864 11.9494 11.7951 11.9112 11.72L11.3357 10.5909ZM8.14042 18.673C8.06004 18.6467 8.00562 18.5719 8.00562 18.4875C8.00562 18.403 8.06004 18.3283 8.14042 18.302L9.34584 17.9107C9.42623 17.8845 9.48065 17.8097 9.48065 17.7253V16.4582C9.48065 16.3738 9.53507 16.299 9.61514 16.2731C9.69552 16.2468 9.78372 16.2753 9.83314 16.3438L10.5782 17.3687C10.6279 17.4369 10.7158 17.4657 10.7962 17.4394L12.0016 17.0481C12.082 17.0218 12.1699 17.0506 12.2196 17.1188C12.2693 17.187 12.2693 17.2796 12.2196 17.3481L11.4746 18.373C11.4248 18.4412 11.4248 18.5338 11.4746 18.602L12.2196 19.6269C12.2693 19.6954 12.2693 19.788 12.2196 19.8562C12.1699 19.9244 12.082 19.9531 12.0016 19.9269L10.7962 19.5356C10.7158 19.5093 10.6279 19.5381 10.5782 19.6063L9.83314 20.6312C9.78372 20.6997 9.69552 20.7282 9.61514 20.7019C9.53507 20.676 9.48065 20.6012 9.48065 20.5168V19.2497C9.48065 19.1653 9.42623 19.0905 9.34584 19.0642L8.14042 18.673ZM27.3965 10.3288C27.4719 10.2904 27.5632 10.3051 27.623 10.3648C27.6827 10.4245 27.6974 10.5159 27.659 10.5909L27.0835 11.72C27.0453 11.7951 27.0597 11.8864 27.1194 11.9462L28.0155 12.842C28.0753 12.9017 28.09 12.993 28.0515 13.0684C28.013 13.1435 27.9308 13.1857 27.8472 13.1726L26.5955 12.9743C26.512 12.9611 26.4294 13.003 26.3913 13.0781L25.8158 14.2072C25.7773 14.2823 25.6951 14.3242 25.6115 14.311C25.528 14.2979 25.4627 14.2325 25.4495 14.149L25.2512 12.8976C25.2381 12.8144 25.1724 12.7487 25.0892 12.7356L23.8372 12.5376C23.754 12.5242 23.6883 12.4588 23.6752 12.3756C23.662 12.2921 23.704 12.2095 23.7793 12.1714L24.9084 11.5962C24.9838 11.5577 25.0257 11.4755 25.0126 11.3919L24.8143 10.1405C24.8012 10.0573 24.8431 9.97477 24.9184 9.93662C24.9935 9.89814 25.0852 9.91253 25.1449 9.97227L26.041 10.8684C26.1007 10.9278 26.1921 10.9425 26.2674 10.904L27.3965 10.3288ZM30.8542 18.302C30.9346 18.3283 30.9887 18.403 30.9887 18.4875C30.9887 18.5719 30.9346 18.6467 30.8542 18.673L29.6488 19.0642C29.5684 19.0905 29.514 19.1653 29.514 19.2497V20.5168C29.514 20.6012 29.4596 20.676 29.3792 20.7019C29.2988 20.7282 29.2109 20.6997 29.1612 20.6312L28.4165 19.6063C28.3668 19.5381 28.2786 19.5093 28.1985 19.5356L26.9931 19.9269C26.9127 19.9531 26.8248 19.9244 26.7751 19.8562C26.7253 19.788 26.7253 19.6954 26.7751 19.6269L27.5201 18.602C27.5695 18.5338 27.5695 18.4412 27.5201 18.373L26.7751 17.3481C26.7253 17.2796 26.7253 17.187 26.7751 17.1188C26.8248 17.0506 26.9127 17.0218 26.9931 17.0481L28.1985 17.4394C28.2786 17.4657 28.3668 17.4369 28.4165 17.3687L29.1612 16.3438C29.2109 16.2753 29.2988 16.2468 29.3792 16.2731C29.4596 16.299 29.514 16.3738 29.514 16.4582V17.7253C29.514 17.8097 29.5684 17.8845 29.6488 17.9107L30.8542 18.302Z" fill="#AF0000"/>
</g>
<defs>
<linearGradient id="paint0_linear_57_222" x1="19.6184" y1="0" x2="19.6184" y2="39.2368" gradientUnits="userSpaceOnUse">
<stop stop-color="#F1E0F9"/>
<stop offset="1" stop-color="white" stop-opacity="0.81"/>
</linearGradient>
</defs>
</svg>
