<svg width="25" height="26" viewBox="0 0 25 26" fill="none" xmlns="http://www.w3.org/2000/svg">
<mask id="mask0_57_217" style="mask-type:luminance" maskUnits="userSpaceOnUse" x="0" y="0" width="25" height="26">
<path d="M0 0H24.6759V26H0V0Z" fill="white"/>
</mask>
<g mask="url(#mask0_57_217)">
<path fill-rule="evenodd" clip-rule="evenodd" d="M19.0106 19.9801L16.5991 19.4704C16.5045 19.4503 16.4227 19.3908 16.3747 19.3074L15.145 17.1689L13.9156 19.3074C13.8673 19.3914 13.7855 19.4503 13.6908 19.4704L11.2793 19.9801L12.9316 21.811C12.9962 21.8831 13.0272 21.9791 13.0172 22.0756L12.7561 24.5285L15.0061 23.5219C15.0503 23.5022 15.098 23.4925 15.145 23.4925C15.192 23.4925 15.2396 23.5022 15.2838 23.5219L17.5339 24.5285L17.2731 22.0756C17.2627 21.9791 17.2941 21.8831 17.3587 21.811L19.0106 19.9801ZM15.14 8.00136L14.7776 10.4868L17.8759 7.69886C17.9383 7.64275 18.0194 7.61141 18.1031 7.61141H23.4759C24.1342 7.61141 24.6702 7.07507 24.6702 6.41523V1.19259C24.6702 0.533064 24.1342 -0.00296021 23.4759 -0.00296021H13.4987C12.8401 -0.00296021 12.3041 0.533378 12.3041 1.19259V6.41585C12.3041 7.07538 12.8401 7.61203 13.4987 7.61203H14.8036C14.9024 7.61203 14.9964 7.65498 15.061 7.72958C15.1259 7.8045 15.1547 7.90387 15.14 8.00136ZM22.375 5.96102H14.5996C14.4118 5.96102 14.2591 5.80836 14.2591 5.62059C14.2591 5.4322 14.4118 5.27986 14.5996 5.27986H22.375C22.5628 5.27986 22.7151 5.43251 22.7151 5.62059C22.7151 5.80899 22.5628 5.96102 22.375 5.96102ZM22.7151 3.80438C22.7151 3.99246 22.5628 4.14512 22.375 4.14512H14.5996C14.4118 4.14512 14.2591 3.99246 14.2591 3.80438C14.2591 3.61599 14.4118 3.46396 14.5996 3.46396H22.375C22.5628 3.46333 22.7151 3.61599 22.7151 3.80438ZM14.5996 2.32796C14.4118 2.32796 14.2591 2.1753 14.2591 1.98723C14.2591 1.79946 14.4118 1.6468 14.5996 1.6468H18.8401C19.0276 1.6468 19.1802 1.79946 19.1802 1.98723C19.1802 2.17593 19.0276 2.32796 18.8401 2.32796H14.5996ZM7.4115 13.4199C9.31015 13.4199 10.8546 11.8742 10.8546 9.97399C10.8546 8.07408 9.31015 6.52839 7.4115 6.52839C5.51315 6.52839 3.96872 8.07408 3.96872 9.97399C3.96934 11.8742 5.51315 13.4199 7.4115 13.4199ZM12.3241 22.1543L12.0166 25.0444C12.0038 25.166 12.0564 25.2845 12.1552 25.356C12.2536 25.4278 12.383 25.4413 12.4937 25.3917L14.8171 24.3523V24.6692C14.8171 25.4008 14.2221 25.9964 13.4911 25.9964H1.33217C0.601166 25.9964 0.00621033 25.4008 0.00621033 24.6692V24.2702C0.00621033 20.1829 3.32862 16.8574 7.4115 16.8574C9.35999 16.8574 11.2232 17.6329 12.6087 19.0027L10.5602 19.4356C10.4411 19.4607 10.3446 19.5475 10.3073 19.6635C10.2694 19.7792 10.2966 19.9064 10.3781 19.997L12.3241 22.1543Z" fill="#52C45E"/>
</g>
</svg>
