<svg width="40" height="40" viewBox="0 0 40 40" fill="none" xmlns="http://www.w3.org/2000/svg">
<rect width="39.2368" height="39.2368" rx="19.6184" fill="url(#paint0_linear_60_217)"/>
<mask id="mask0_60_217" style="mask-type:luminance" maskUnits="userSpaceOnUse" x="8" y="5" width="25" height="26">
<path d="M8 5H32.6759V31H8V5Z" fill="white"/>
</mask>
<g mask="url(#mask0_60_217)">
<path fill-rule="evenodd" clip-rule="evenodd" d="M27.0106 24.9801L24.5992 24.4704C24.5045 24.4503 24.4227 24.3908 24.3747 24.3074L23.145 22.1689L21.9156 24.3074C21.8673 24.3914 21.7855 24.4503 21.6908 24.4704L19.2794 24.9801L20.9316 26.811C20.9962 26.8831 21.0272 26.9791 21.0172 27.0756L20.7561 29.5285L23.0061 28.5219C23.0503 28.5022 23.098 28.4925 23.145 28.4925C23.192 28.4925 23.2397 28.5022 23.2839 28.5219L25.5339 29.5285L25.2731 27.0756C25.2628 26.9791 25.2941 26.8831 25.3587 26.811L27.0106 24.9801ZM23.14 13.0014L22.7776 15.4868L25.8759 12.6989C25.9383 12.6428 26.0195 12.6114 26.1032 12.6114H31.4759C32.1342 12.6114 32.6702 12.0751 32.6702 11.4152V6.19259C32.6702 5.53306 32.1342 4.99704 31.4759 4.99704H21.4987C20.8401 4.99704 20.3041 5.53338 20.3041 6.19259V11.4159C20.3041 12.0754 20.8401 12.612 21.4987 12.612H22.8036C22.9024 12.612 22.9964 12.655 23.061 12.7296C23.1259 12.8045 23.1547 12.9039 23.14 13.0014ZM30.3751 10.961H22.5996C22.4118 10.961 22.2591 10.8084 22.2591 10.6206C22.2591 10.4322 22.4118 10.2799 22.5996 10.2799H30.3751C30.5628 10.2799 30.7152 10.4325 30.7152 10.6206C30.7152 10.809 30.5628 10.961 30.3751 10.961ZM30.7152 8.80438C30.7152 8.99246 30.5628 9.14512 30.3751 9.14512H22.5996C22.4118 9.14512 22.2591 8.99246 22.2591 8.80438C22.2591 8.61599 22.4118 8.46396 22.5996 8.46396H30.3751C30.5628 8.46333 30.7152 8.61599 30.7152 8.80438ZM22.5996 7.32796C22.4118 7.32796 22.2591 7.1753 22.2591 6.98723C22.2591 6.79946 22.4118 6.6468 22.5996 6.6468H26.8401C27.0276 6.6468 27.1802 6.79946 27.1802 6.98723C27.1802 7.17593 27.0276 7.32796 26.8401 7.32796H22.5996ZM15.4115 18.4199C17.3102 18.4199 18.8546 16.8742 18.8546 14.974C18.8546 13.0741 17.3102 11.5284 15.4115 11.5284C13.5132 11.5284 11.9687 13.0741 11.9687 14.974C11.9694 16.8742 13.5132 18.4199 15.4115 18.4199ZM20.3241 27.1543L20.0166 30.0444C20.0038 30.166 20.0564 30.2845 20.1552 30.356C20.2536 30.4278 20.3831 30.4413 20.4937 30.3917L22.8171 29.3523V29.6692C22.8171 30.4008 22.2222 30.9964 21.4912 30.9964H9.33218C8.60118 30.9964 8.00623 30.4008 8.00623 29.6692V29.2702C8.00623 25.1829 11.3286 21.8574 15.4115 21.8574C17.36 21.8574 19.2232 22.6329 20.6088 24.0027L18.5603 24.4356C18.4411 24.4607 18.3446 24.5475 18.3073 24.6635C18.2694 24.7792 18.2966 24.9064 18.3781 24.997L20.3241 27.1543Z" fill="#52C45E"/>
</g>
<defs>
<linearGradient id="paint0_linear_60_217" x1="19.6184" y1="0" x2="19.6184" y2="39.2368" gradientUnits="userSpaceOnUse">
<stop stop-color="#DFF7C6"/>
<stop offset="1" stop-color="#E8FFD0" stop-opacity="0.81"/>
</linearGradient>
</defs>
</svg>
