<svg width="40" height="40" viewBox="0 0 40 40" fill="none" xmlns="http://www.w3.org/2000/svg">
<rect width="39.2368" height="39.2368" rx="19.6184" fill="url(#paint0_linear_57_222)"/>
<path fill-rule="evenodd" clip-rule="evenodd" d="M28.8438 23.5466V26.9778H22.5108V30.4045H16.1855V33.8346H12.7491V35.7107H18.065V32.2778H24.3884V28.8535H30.7211V25.4226H34.1593V23.5466H28.8438Z" fill="#7D3F98"/>
<path d="M14.8753 18.0174L14.9689 18.0716C15.1663 18.432 15.5429 18.6197 15.9327 18.6259L15.9772 18.6514C16.0546 18.6971 16.0755 18.7803 16.031 18.855L15.7872 19.2816L14.4255 18.4966L14.6717 18.0716C14.7231 17.9822 14.7979 17.9725 14.8753 18.0174ZM19.1314 10.0529C18.9038 10.0529 18.6789 10.1203 18.4916 10.2523L15.3301 12.3613C15.0158 12.5703 14.8288 12.9214 14.8288 13.3011V17.253C14.5076 17.2441 14.189 17.4005 14.0175 17.6962L13.7714 18.1204L12.1639 17.1926C11.8403 17.0049 11.4277 17.1152 11.24 17.4388L9.09144 21.1573C8.90372 21.4832 9.01403 21.8934 9.33993 22.0792L15.2248 25.4757C15.5484 25.6634 15.961 25.5539 16.1479 25.2303L18.2973 21.5087C18.485 21.1855 18.3747 20.7729 18.0511 20.5867L16.4386 19.6589L16.6848 19.2324C16.8419 18.9607 16.8349 18.6352 16.6987 18.3708C16.9333 18.18 17.0927 17.8889 17.0877 17.4856V13.9069L18.1614 13.19V18.4804C18.1614 18.9328 18.4099 19.3466 18.8101 19.5579L23.413 21.9914L24.9926 25.1107C25.6982 26.6512 27.995 25.4877 27.1679 24.0099L25.4149 20.548C25.2999 20.3231 25.1223 20.1416 24.8974 20.0236L21.9275 18.4471V11.2729C21.9302 10.601 21.3813 10.0529 20.7086 10.0529H19.1314Z" fill="#7D3F98"/>
<path d="M22.635 14.7437L25.7288 15.7129C27.0552 16.1294 26.4297 18.1157 25.1029 17.6985L22.635 16.9228V14.7437Z" fill="#7D3F98"/>
<path d="M19.4875 20.7311L21.9275 22.0173V23.5439C21.9275 23.7556 21.8737 23.9638 21.7657 24.1481L19.4174 28.2401C18.6065 29.6478 16.4901 28.4351 17.301 27.0247L19.4875 23.2184V20.7311Z" fill="#7D3F98"/>
<path fill-rule="evenodd" clip-rule="evenodd" d="M22.3262 5.35016C23.0128 6.60965 22.5298 8.18614 21.2432 8.87549C19.9589 9.56291 18.3584 9.09728 17.6714 7.84243C16.9824 6.5841 17.4651 5.00761 18.7494 4.32019C20.0387 3.62891 21.6368 4.09531 22.3262 5.35016Z" fill="#7D3F98"/>
<defs>
<linearGradient id="paint0_linear_57_222" x1="19.6184" y1="0" x2="19.6184" y2="39.2368" gradientUnits="userSpaceOnUse">
<stop stop-color="#F1E0F9"/>
<stop offset="1" stop-color="white" stop-opacity="0.81"/>
</linearGradient>
</defs>
</svg>
