<svg width="39" height="37" viewBox="0 0 39 37" fill="none" xmlns="http://www.w3.org/2000/svg">
<path d="M27.2043 9.59289C27.0172 9.6546 26.8325 9.71632 26.6454 9.7785C29.6565 8.90795 32.6001 7.84198 35.4997 6.66801C32.73 7.6358 29.9867 8.67091 27.2043 9.59289ZM22.1416 9.97393C22.1935 10.0693 22.2455 10.1647 22.3003 10.2601C22.3626 10.2395 22.425 10.2213 22.4874 10.2007C22.2455 9.78598 22.0065 9.37128 21.7646 8.95704C21.3612 8.26416 20.9686 7.5666 20.5737 6.86858C21.0673 7.91912 21.5718 8.96219 22.1416 9.97393ZM20.979 10.211C21.0465 10.3447 21.1169 10.4761 21.1873 10.6102C21.3588 10.556 21.5331 10.5018 21.7046 10.448C20.5708 8.58863 19.4734 6.70635 18.5428 4.73663C19.2032 6.62406 20.0559 8.43668 20.979 10.211ZM23.5299 11.1507C27.277 10.2287 31.001 9.22494 34.6753 8.0505C34.9115 7.75689 35.1638 7.47918 35.3849 7.17247C31.4871 8.67091 27.5241 9.99964 23.486 11.081C23.5016 11.1044 23.5172 11.1278 23.5299 11.1507ZM22.8828 11.3106C22.9555 11.2924 23.0254 11.2741 23.0982 11.2587C23.0854 11.2381 23.0722 11.2152 23.0618 11.1947C22.9919 11.2124 22.9191 11.2307 22.8487 11.2512C22.8591 11.269 22.8724 11.29 22.8828 11.3106ZM21.7074 11.5963C21.9072 11.5472 22.1104 11.4985 22.3107 11.4495C22.3003 11.4312 22.2899 11.4158 22.2795 11.398C22.0816 11.4495 21.8813 11.5009 21.6838 11.5551C21.6918 11.5677 21.6994 11.5808 21.7074 11.5963ZM17.2371 4.04936C16.9669 6.72692 16.5587 9.38951 16.1789 12.0544C17.7572 11.6608 19.3123 11.197 20.8647 10.7103C19.8636 8.78686 18.9198 6.82229 18.215 4.77263C18.0227 4.21393 17.812 3.68609 17.7237 3.10401C17.7133 3.05258 17.7237 2.99601 17.7 2.94692C17.6141 2.78235 17.5389 2.62526 17.4506 2.47097C17.3254 2.99367 17.2659 3.51638 17.2371 4.04936ZM15.5601 12.2143C15.5988 12.2041 15.6356 12.1961 15.6744 12.1858C15.7004 12.1783 15.724 12.1732 15.75 12.1652C15.8407 11.5009 15.9318 10.8342 16.0202 10.1698C16.0906 9.65226 16.1581 9.13704 16.2257 8.61949C16.0022 9.81964 15.7396 11.0118 15.5601 12.2143ZM18.9094 12.2732C19.7285 12.075 20.55 11.8768 21.3692 11.6785C21.3612 11.6659 21.356 11.6528 21.3484 11.6425C20.5425 11.8768 19.7049 12.003 18.9094 12.2732ZM12.8116 13.4963C10.4921 13.9292 8.1698 14.3486 5.84275 14.7428C7.62654 14.6885 9.4023 14.4982 11.1577 14.1812C12.3331 13.9138 13.4744 13.5328 14.6238 13.1747C14.6266 13.1667 14.6266 13.1564 14.629 13.1489C14.0077 13.2775 13.4276 13.386 12.8116 13.4963ZM3.22375 16.5068C2.90677 16.352 2.59971 16.1771 2.29832 15.9967C2.09566 15.8732 1.88497 15.7236 1.80183 15.4945C1.61428 15.5539 1.42201 15.6053 1.28171 15.7339C1.33084 15.8475 1.46359 15.8756 1.55476 15.9322C2.09282 16.172 2.6649 16.3239 3.22375 16.5068ZM23.889 11.7585C24.7029 13.141 25.4984 14.5366 26.2996 15.927C26.4399 16.172 26.5831 16.4189 26.7257 16.6638C29.0972 14.1995 31.4583 11.7174 33.7206 9.15762C30.4209 9.98187 27.1183 10.8005 23.829 11.6556C23.8474 11.6888 23.8682 11.7248 23.889 11.7585ZM23.2829 12.0236C24.2608 13.7385 25.249 15.4459 26.2812 17.1272C26.3152 17.0912 26.3488 17.0552 26.3851 17.0192C26.1277 16.5657 25.8702 16.1126 25.6156 15.6568C24.8824 14.3566 24.1436 13.0587 23.3977 11.766C23.3221 11.7865 23.2465 11.8048 23.1738 11.8254C23.2078 11.8922 23.2465 11.9591 23.2829 12.0236ZM22.7604 13.5066C23.6315 15.0261 24.4998 16.5479 25.4129 18.0412C25.4465 18.0052 25.4805 17.9715 25.5117 17.9355C25.5948 17.8481 25.6803 17.7579 25.7639 17.6704C24.7624 15.7442 23.7666 13.8156 22.6201 11.9694C22.4146 12.0236 22.2063 12.0778 22.0013 12.1344C22.2535 12.5926 22.5029 13.0536 22.7604 13.5066ZM7.07525 17.6756C8.14146 17.9972 9.21003 18.3194 10.2762 18.6462C8.49245 17.879 6.69827 17.1375 4.89606 16.4137C3.98857 16.0869 3.11463 15.6105 2.16038 15.4791C2.97433 16.1126 3.97298 16.4474 4.90362 16.8621C5.61647 17.1632 6.32602 17.4722 7.07525 17.6756ZM13.5604 19.6916C13.8178 17.8018 14.1348 15.9195 14.4679 14.0396C13.0351 14.3617 11.5763 14.5805 10.1851 15.0593C9.24641 15.322 8.32853 15.6773 7.36625 15.8424C7.23634 15.863 7.10359 15.7727 7.07005 15.6493C6.99966 15.3865 7.2935 15.2991 7.48057 15.2164C6.65906 15.2575 5.83992 15.3323 5.01841 15.3169C4.47467 15.2888 3.89504 15.3403 3.38768 15.1135C3.30454 15.1289 3.22139 15.1472 3.14864 15.1626C2.98992 15.1986 2.82883 15.2346 2.6701 15.2683C5.0392 16.115 7.33507 17.1398 9.65456 18.1132C10.9522 18.6593 12.2055 19.3031 13.5604 19.6916ZM14.6445 20.0572C14.8552 18.6027 15.0636 17.1477 15.2662 15.6904C15.3546 15.0569 15.4429 14.4234 15.5289 13.7899C15.4741 13.803 15.4198 13.8156 15.365 13.8311C15.3182 14.2252 15.2686 14.6193 15.2218 15.013C15.0215 16.6919 14.8189 18.3708 14.6186 20.0497C14.6266 20.0497 14.6341 20.0548 14.6445 20.0572ZM13.0559 20.1194C13.1962 20.1783 13.3369 20.2377 13.4772 20.2942C13.4824 20.2554 13.4876 20.2171 13.4928 20.1783C13.4952 20.1577 13.498 20.1399 13.5004 20.1194C12.2471 19.4471 10.8639 19.102 9.50906 18.6873C10.6948 19.1534 11.8805 19.6275 13.0559 20.1194ZM14.6006 20.3662C14.603 20.3536 14.6058 20.3382 14.6058 20.3251C14.5978 20.3227 14.5926 20.3199 14.585 20.3176C14.5822 20.3302 14.5822 20.3433 14.5798 20.3559C14.5874 20.3611 14.5926 20.3639 14.6006 20.3662ZM14.5458 20.7421C14.551 20.7038 14.5562 20.665 14.5614 20.6262C14.5562 20.6238 14.5538 20.621 14.5486 20.621C14.5434 20.6598 14.5383 20.701 14.5354 20.7398C14.5383 20.7398 14.5406 20.7398 14.5458 20.7421ZM11.7246 20.6547C12.2627 20.8684 12.7984 21.082 13.3369 21.2957C13.3497 21.2059 13.3629 21.1157 13.3733 21.0254C13.0922 20.9534 12.814 20.8786 12.5334 20.8015C12.0676 20.6753 11.6023 20.5467 11.137 20.4205C11.3344 20.5004 11.5295 20.5776 11.7246 20.6547ZM27.3786 18.9272C27.8779 19.7252 28.3848 20.5182 28.8893 21.3139C28.6607 20.9329 28.4316 20.5518 28.2053 20.1708C27.9271 19.7019 27.654 19.2334 27.381 18.7621C27.3602 18.7855 27.3394 18.8084 27.3186 18.8318C27.3394 18.8626 27.3602 18.8958 27.3786 18.9272ZM16.0022 21.3293C15.7679 21.2134 15.5341 21.0974 15.2974 20.9792C15.3026 20.982 15.3078 20.9843 15.313 20.9871C15.1779 20.9226 15.0423 20.8581 14.91 20.7936C14.9048 20.8272 14.8996 20.8581 14.8968 20.8917C15.2114 21.0231 15.5289 21.1568 15.8435 21.2882C15.8955 21.3008 15.9503 21.3139 16.0022 21.3293ZM15.2582 20.2685C17.2475 20.9923 19.2316 21.731 21.1717 22.5781C22.477 21.1386 23.8186 19.7304 25.1526 18.3166C23.9513 16.3085 22.7864 14.2794 21.6682 12.2246C19.7621 12.7188 17.8611 13.2364 15.9422 13.6894C15.6796 15.4894 15.4198 17.2917 15.1571 19.0917C15.1051 19.4522 15.0503 19.8155 14.9984 20.1759C15.0867 20.2068 15.1727 20.2377 15.2582 20.2685ZM18.3997 22.0274C18.9066 22.1971 19.4163 22.3645 19.9232 22.5342C20.2486 22.6426 20.5685 22.7637 20.8906 22.8792C20.9114 22.8563 20.9322 22.8329 20.953 22.81C18.9873 21.9423 16.9825 21.1671 14.9592 20.441C14.954 20.4696 14.9516 20.4976 14.9464 20.5261C16.0958 21.0614 17.1672 21.7207 18.3997 22.0274ZM20.5425 23.271C20.5552 23.2556 20.5708 23.2373 20.5864 23.2219C20.3422 23.1317 20.1003 23.0442 19.8556 22.9517C19.8532 22.9517 19.8504 22.9489 19.8452 22.9489C19.866 22.9568 19.8688 22.9568 19.7517 22.918C19.8296 22.9568 19.9076 22.998 19.986 23.0363C20.1702 23.1139 20.3578 23.1934 20.5425 23.271ZM29.0193 23.6469C28.2445 22.2667 27.4802 20.8814 26.7309 19.491C26.6454 19.5859 26.5618 19.679 26.4763 19.7743C26.5618 19.9104 26.6506 20.0446 26.7361 20.1811C27.4669 21.3345 28.2237 22.4701 28.9857 23.6029C28.9829 23.5978 28.9805 23.5927 28.9829 23.5978C28.9933 23.6132 29.0065 23.6287 29.0193 23.6469ZM16.5171 22.6038C17.3179 22.9437 18.1238 23.2785 18.9221 23.6287C19.2396 23.768 19.5542 23.9068 19.8712 24.0457C19.9935 23.904 20.1183 23.76 20.2406 23.6184C18.4308 22.8923 16.6858 21.9703 14.8189 21.4093C14.7957 21.5636 14.7749 21.7183 14.7513 21.8754C15.3418 22.1148 15.9318 22.3542 16.5171 22.6038ZM22.6513 24.1747C24.3156 24.8929 25.9794 25.6138 27.6436 26.3324C27.8727 26.4301 28.1014 26.5306 28.3305 26.6283C26.4839 25.6708 24.6014 24.7797 22.664 24.0228C22.6381 24.0508 22.6149 24.0794 22.5889 24.1051C22.5785 24.1154 22.5705 24.1257 22.5601 24.1359C22.5913 24.149 22.6201 24.1616 22.6513 24.1747ZM26.1017 26.7957C26.3436 26.899 26.5883 27.0042 26.8297 27.1076C25.301 26.2319 23.7695 25.3567 22.2167 24.5221C22.0972 24.6563 21.9776 24.7924 21.8581 24.9265C23.2701 25.5572 24.6821 26.1856 26.1017 26.7957ZM30.5404 27.1024C30.6731 27.1665 30.803 27.2287 30.9334 27.2927C29.3703 24.8751 27.7244 22.5113 26.216 20.06C26.1433 20.1423 26.0682 20.2246 25.9954 20.3073C25.0511 21.3551 24.1124 22.4056 23.1714 23.4538C24.7001 24.1542 26.2604 24.8957 27.7428 25.6549C28.6763 26.1365 29.5861 26.6643 30.5404 27.1024ZM32.2958 27.9879C31.8797 27.0893 31.2764 26.2885 30.7563 25.4464C29.6773 23.7783 28.5828 22.1171 27.5449 20.4228C28.3121 21.7824 29.0844 23.1396 29.8776 24.4838C30.6448 25.6732 31.2636 27.0019 32.2958 27.9879ZM13.3133 32.659C13.8514 31.8942 14.4627 31.1784 15.0215 30.4317C16.4779 28.2764 18.0175 26.1884 19.7233 24.221C18.0666 23.4847 16.3948 22.7946 14.7201 22.1097C14.3899 24.3959 14.0545 26.6826 13.7267 28.9693C13.5396 30.1923 13.3681 31.4205 13.3133 32.659ZM12.2084 36.9926C11.7922 36.9047 11.9273 36.4105 11.9637 36.1094C12.0468 34.9401 12.2136 33.7788 12.2915 32.61C12.5334 28.9122 12.84 25.2173 13.3029 21.5407C10.9055 20.5953 8.50284 19.6635 6.07659 18.7906C4.94282 18.3731 3.82465 17.915 2.71167 17.4385C1.80702 17.0421 0.86269 16.6919 0.0671656 16.0944C-0.0835306 15.984 0.0411835 15.7185 0.225893 15.7802C0.545709 15.8784 0.821119 16.0663 1.11779 16.2155C4.87244 18.1931 8.92659 19.5139 13.0327 20.5542C10.5205 19.4933 7.9747 18.5176 5.44735 17.49C4.05093 17.0449 2.57656 16.7433 1.2373 16.1589C-0.0292044 15.2837 2.62853 14.8353 3.19021 14.6731C3.47885 14.2846 4.11329 14.3332 4.55262 14.2537C5.05998 14.1892 5.56687 14.1298 6.07375 14.0555C8.95777 13.4397 11.8857 13.0255 14.7645 12.3892C15.0815 10.7285 15.3938 9.06785 15.5988 7.38894C15.6744 6.85081 15.7627 6.31502 15.8539 5.77689C15.9059 5.49123 15.937 5.17191 16.1449 4.9503C16.2932 4.15736 16.452 3.36443 16.5847 2.56869C16.8445 1.9637 16.9432 1.30168 17.1695 0.676119C17.2527 0.480223 17.409 -0.0499585 17.6741 0.00380768C17.7548 0.0248466 17.8092 0.0991842 17.8092 0.179132C17.8276 0.773833 17.6481 1.35077 17.5517 1.93284C17.7936 2.06142 17.9159 2.31108 18.0487 2.53783C18.2069 2.59674 18.2853 2.75897 18.3633 2.8983C18.4904 3.12739 18.6283 3.35134 18.7478 3.58557C18.6439 3.36676 18.54 3.15076 18.4332 2.9343C18.3553 2.79778 18.1786 2.59674 18.2825 2.43451C18.3425 2.3396 18.4852 2.33445 18.5428 2.43451C19.9756 4.9891 21.3692 7.5638 22.888 10.0721C26.4296 8.95424 29.9579 7.80318 33.5 6.68577C34.0277 6.47492 34.5553 6.26126 35.0887 6.06022C35.4864 5.93679 35.9078 5.68666 36.3316 5.79232C37.1091 5.56604 37.8735 5.26448 38.6851 5.18219C38.9213 5.15367 39.0956 5.42952 38.9421 5.62261C38.7111 5.94707 38.3053 6.05227 37.9514 6.18879C37.4809 6.37159 37.0076 6.55206 36.5371 6.73206C36.3339 7.09533 36.0769 7.43009 35.8195 7.75455L35.8218 7.75689C35.8374 7.77746 35.8507 7.79803 35.8634 7.82141C36.1809 7.62037 36.555 8.0145 36.3212 8.31559C35.7387 9.09076 35.0991 9.82478 34.4774 10.5714C32.301 13.2392 30.0023 15.7984 27.7192 18.3759C29.7812 21.9114 32.0644 25.3127 34.168 28.8145C34.2539 28.9693 34.2875 29.1624 34.1812 29.3143C34.09 29.484 33.8326 29.4943 33.7182 29.3424C33.4296 28.9796 33.1797 28.5957 32.9199 28.217C32.8859 28.1656 32.8495 28.1142 32.8183 28.145C32.8027 28.3461 32.6912 28.6472 32.4338 28.5415C32.7952 29.0848 33.1358 29.6411 33.4844 30.1923C33.6582 30.4701 33.8406 30.7459 34.004 31.0292C34.0721 31.1447 34.0433 31.2967 33.9365 31.3794C33.8146 31.472 33.6479 31.4435 33.552 31.3303C33.0734 30.6426 32.6497 29.9193 32.1839 29.2213C31.8745 28.7757 31.6586 28.2147 31.1021 28.0216C31.0553 28.1502 30.8942 28.225 30.7643 28.1838C29.9943 27.9753 29.2796 27.62 28.5539 27.2955C27.2614 26.7111 25.969 26.129 24.6741 25.5521C26.4215 26.5101 28.1326 27.5372 29.9192 28.4283C30.4209 28.6448 30.9282 28.8505 31.4299 29.0721C31.6118 29.1647 31.8433 29.1932 31.968 29.3657C32.0644 29.5074 31.9316 29.6771 31.7705 29.6206C30.8682 29.3143 30.0415 28.8402 29.1884 28.4283C26.687 27.3315 24.1904 26.2244 21.7022 25.1014C21.0361 25.8382 20.3809 26.5821 19.7181 27.3212C19.7233 27.3133 19.7285 27.3109 19.7361 27.303C17.453 29.873 15.3286 32.5763 13.1494 35.2337C13.1314 35.6302 13.1234 36.0267 13.1494 36.4185C13.1598 36.5339 13.173 36.6499 13.1938 36.7635C13.199 36.7995 13.2198 36.8406 13.2273 36.8715C13.0535 36.3923 13.0714 35.8593 13.0379 35.3548C13.0011 35.3936 12.9675 35.4296 12.9311 35.468C12.8919 35.5119 12.84 35.5428 12.7828 35.561C12.7153 35.9832 12.6501 36.4054 12.5282 36.8149C12.489 36.9566 12.3406 37.0235 12.2084 36.9926Z" fill="#f76918"/>
</svg>
